<?xml version="1.0" encoding="utf-8"?>
<!-- Generator: Adobe Illustrator 16.0.0, SVG Export Plug-In . SVG Version: 6.00 Build 0)  -->
<!DOCTYPE svg PUBLIC "-//W3C//DTD SVG 1.1//EN" "http://www.w3.org/Graphics/SVG/1.1/DTD/svg11.dtd">
<svg version="1.1" id="Warstwa_1" xmlns="http://www.w3.org/2000/svg" xmlns:xlink="http://www.w3.org/1999/xlink" x="0px" y="0px"
	 width="566.929px" height="163.491px" viewBox="0 0 566.929 163.491" enable-background="new 0 0 566.929 163.491"
	 xml:space="preserve">
<g>
	<defs>
		<rect id="SVGID_1_" x="0.001" width="566.927" height="163.491"/>
	</defs>
	<clipPath id="SVGID_2_">
		<use xlink:href="#SVGID_1_"  overflow="visible"/>
	</clipPath>
	<path clip-path="url(#SVGID_2_)" fill="#F7323F" d="M82.755,33.893c0.348,2.805,0.468,5.135,0.468,7.127
		c0,23.72-16.96,40.778-40.58,40.778C18.905,81.798,0.43,63.92,0.43,40.903C0.43,18,18.785-0.002,42.293-0.002
		c17.423,0,32.747,8.183,38.239,23.493l-18.593,5.378C57.38,19.98,49.895,17.649,42.293,17.649
		c-12.748,0-22.452,10.049-22.452,23.253c0,13.32,9.938,23.369,23.035,23.369c10.29,0,17.775-5.375,20.696-14.023H39.601V33.893
		H82.755z"/>
</g>
<polygon fill="#F7323F" points="142.912,1.759 116.251,32.834 113.439,32.834 113.439,1.759 94.148,1.759 94.148,80.049 
	113.439,80.049 113.439,50.6 117.533,50.6 143.141,80.049 168.404,80.049 132.735,41.017 166.067,1.759 "/>
<polygon fill="#333E48" points="174.881,1.759 174.881,80.049 194.17,80.049 194.17,51.995 230.892,51.995 230.892,35.173 
	194.17,35.173 194.17,18.697 235.454,18.697 235.454,1.759 "/>
<g>
	<defs>
		<rect id="SVGID_3_" x="0.001" width="566.927" height="163.491"/>
	</defs>
	<clipPath id="SVGID_4_">
		<use xlink:href="#SVGID_3_"  overflow="visible"/>
	</clipPath>
	<path clip-path="url(#SVGID_4_)" fill="#333E48" d="M374.12,37.039c6.893,0,11.338-3.731,11.338-9.458
		c0-5.611-4.445-9.351-11.338-9.351h-18.246v18.809H374.12z M385.106,80.046L361.48,53.17h-5.606v26.876h-19.301V1.759h39.649
		c16.949,0,28.174,10.276,28.174,25.583c0,12.855-7.949,22.088-20.576,24.895l24.558,27.809H385.106z"/>
	<path clip-path="url(#SVGID_4_)" fill="#333E48" d="M494.492,33.893c0.356,2.805,0.468,5.135,0.468,7.127
		c0,23.72-16.955,40.778-40.578,40.778c-23.743,0-42.214-17.877-42.214-40.895c0-22.902,18.362-40.905,41.871-40.905
		c17.409,0,32.73,8.183,38.236,23.493l-18.593,5.378c-4.563-8.888-12.049-11.219-19.644-11.219
		c-12.753,0-22.453,10.049-22.453,23.253c0,13.32,9.928,23.369,23.029,23.369c10.294,0,17.78-5.375,20.702-14.023H451.34V33.893
		H494.492z"/>
</g>
<polygon fill="#333E48" points="505.882,1.758 505.882,80.048 566.928,80.048 566.928,63.452 525.182,63.452 525.182,48.733 
	563.185,48.733 563.185,33.074 525.182,33.074 525.182,18.354 566.574,18.354 566.574,1.758 "/>
<g>
	<defs>
		<rect id="SVGID_5_" x="0.001" width="566.927" height="163.491"/>
	</defs>
	<clipPath id="SVGID_6_">
		<use xlink:href="#SVGID_5_"  overflow="visible"/>
	</clipPath>
	<path clip-path="url(#SVGID_6_)" fill="#333E48" d="M263.995,52.074c-1.626-3.301-2.542-7.004-2.542-11.058
		c0-13.432,9.706-23.369,22.456-23.369c4.315,0,8.169,1.144,11.489,3.132l13.164-13.101c-6.861-4.807-15.403-7.68-24.653-7.68
		c-23.392,0-41.745,18.12-41.745,41.018c0,9.318,3.078,17.82,8.302,24.542L263.995,52.074z"/>
	<path clip-path="url(#SVGID_6_)" fill="#333E48" d="M318.12,17.41l-13.712,13.663c1.256,3.019,1.952,6.359,1.952,9.943
		c0,13.321-9.706,23.141-22.451,23.141c-3.728,0-7.215-0.821-10.245-2.436l-13.247,13.198c6.662,4.31,14.724,6.879,23.492,6.879
		c23.39,0,41.752-17.992,41.752-40.782C325.661,32.186,322.873,24.052,318.12,17.41"/>
	<path clip-path="url(#SVGID_6_)" fill="#333E48" d="M563.533,128.145c0.821,0,1.535-0.297,2.131-0.891
		c0.597-0.599,0.896-1.313,0.896-2.134c0-0.822-0.3-1.535-0.896-2.135c-0.596-0.593-1.31-0.896-2.131-0.896
		c-0.827,0-1.541,0.303-2.137,0.896c-0.597,0.6-0.894,1.313-0.894,2.135c0,0.821,0.297,1.535,0.894,2.134
		C561.992,127.848,562.706,128.145,563.533,128.145 M565.878,131.773h-4.78v22.683h4.78V131.773z M554.415,122.814h-4.782v31.642
		h4.782V122.814z M536.641,149.462c-1.142,0.856-2.471,1.284-3.994,1.284c-1.521,0-2.705-0.297-3.561-0.873
		c-0.856-0.588-1.282-1.433-1.282-2.539c0-2.163,1.721-3.241,5.167-3.241h5.375v1.917
		C538.346,147.459,537.775,148.61,536.641,149.462 M543.122,139.83c0-2.904-0.844-5.027-2.536-6.374
		c-1.694-1.352-3.877-2.025-6.551-2.025c-3.5,0-6.627,1.09-9.386,3.281l2.131,2.984c2.276-1.535,4.465-2.3,6.573-2.3
		c3.355,0,5.033,1.506,5.033,4.52v0.85h-6.186c-2.816,0-5.05,0.553-6.699,1.661c-1.649,1.112-2.477,2.778-2.477,5.016
		c0,2.23,0.776,4.011,2.328,5.347c1.547,1.341,3.504,2.002,5.866,2.002c3.158,0,5.672-1.118,7.552-3.366v3.03h4.351V139.83z
		 M518.518,135.607v-3.834h-5.974v-7.127h-4.779v7.127h-2.858v3.834h2.858v11.384c0,2.391,0.716,4.285,2.154,5.694
		c1.438,1.404,3.173,2.105,5.204,2.105c2.037,0,3.891-0.747,5.568-2.259l-1.963-3.367c-0.936,0.999-1.917,1.495-2.944,1.495
		c-1.021,0-1.819-0.325-2.391-0.964c-0.567-0.64-0.85-1.495-0.85-2.579v-11.51H518.518z M486.278,137.12
		c1.39-1.067,2.965-1.598,4.713-1.598c1.749,0,3.222,0.513,4.417,1.534c1.192,1.021,1.792,2.488,1.792,4.388h-13.016
		C484.185,139.631,484.881,138.187,486.278,137.12 M501.976,141.919c0-3.27-1.078-5.838-3.241-7.698
		c-2.162-1.86-4.784-2.79-7.868-2.79c-3.09,0-5.771,1.05-8.046,3.155c-2.276,2.101-3.412,4.937-3.412,8.502
		c0,3.566,1.113,6.414,3.35,8.531c2.231,2.116,4.941,3.172,8.125,3.172c3.929,0,7.113-1.261,9.559-3.794l-2.728-2.984
		c-1.484,1.792-3.646,2.688-6.488,2.688c-1.792,0-3.384-0.502-4.778-1.512c-1.396-1.011-2.148-2.34-2.263-3.989h17.791V141.919z
		 M444.744,131.174l10.368,20.679h2.815l10.411-20.679v23.281h5.032v-29.809h-7.806l-9.004,18.722l-9.005-18.722h-7.849v29.809
		h5.036V131.174z M414.359,149.462c-1.142,0.856-2.471,1.284-3.992,1.284s-2.707-0.297-3.561-0.873
		c-0.853-0.588-1.28-1.433-1.28-2.539c0-2.163,1.723-3.241,5.164-3.241h5.375v1.917C416.065,147.459,415.494,148.61,414.359,149.462
		 M420.844,139.83c0-2.904-0.847-5.027-2.536-6.374c-1.694-1.352-3.88-2.025-6.551-2.025c-3.5,0-6.63,1.09-9.387,3.281l2.132,2.984
		c2.273-1.535,4.465-2.3,6.57-2.3c3.355,0,5.038,1.506,5.038,4.52v0.85h-6.19c-2.813,0-5.05,0.553-6.7,1.661
		c-1.648,1.112-2.473,2.778-2.473,5.016c0,2.23,0.773,4.011,2.325,5.347c1.55,1.341,3.507,2.002,5.866,2.002
		c3.161,0,5.675-1.118,7.555-3.366v3.03h4.351V139.83z M381.595,137.377c1.221-1.096,2.659-1.644,4.308-1.644
		c3.47,0,5.207,2.094,5.207,6.271v12.451h4.776v-13.9c0-2.956-0.791-5.215-2.365-6.784c-1.581-1.558-3.649-2.34-6.208-2.34
		c-1.566,0-3.024,0.394-4.374,1.192c-1.355,0.794-2.411,1.889-3.181,3.281v-4.131h-4.776v22.682h4.776v-12.279
		C379.758,140.069,380.368,138.472,381.595,137.377 M363.227,135.95l-12.416,13.854v4.65h19.285v-4.137h-13.442l12.759-14.157
		v-4.303h-17.749v4.092H363.227z M347.244,150.614l-2.819-3.069c-1.877,1.935-3.874,2.898-5.995,2.898
		c-2.118,0-3.904-0.725-5.354-2.174c-1.449-1.45-2.175-3.219-2.175-5.307c0-2.089,0.73-3.795,2.197-5.118
		c1.467-1.318,3.189-1.98,5.184-1.98c1.989,0,3.969,0.851,5.932,2.557l2.816-3.452c-2.365-2.357-5.253-3.538-8.665-3.538
		s-6.305,1.084-8.679,3.259c-2.377,2.18-3.566,4.998-3.566,8.462c0,3.469,1.142,6.276,3.415,8.422
		c2.276,2.146,4.99,3.218,8.148,3.218C341.298,154.791,344.482,153.405,347.244,150.614 M310.894,162.215
		c1.221-0.855,2.159-2.021,2.816-3.498l11.007-26.943h-5.118l-6.785,16.707l-6.784-16.707h-5.121
		c6.116,15.144,9.172,22.92,9.172,23.314c0,0.913-0.331,1.752-1.001,2.522c-0.671,0.765-1.538,1.152-2.605,1.152
		c-1.063,0-2.094-0.474-3.092-1.409l-2.175,3.88c1.678,1.507,3.555,2.253,5.632,2.253
		C308.32,163.486,309.67,163.065,310.894,162.215 M297.55,135.607v-3.834h-5.975v-7.127H286.8v7.127h-2.859v3.834h2.859v11.384
		c0,2.391,0.716,4.285,2.151,5.694c1.438,1.404,3.175,2.105,5.209,2.105c2.031,0,3.886-0.747,5.566-2.259l-1.963-3.367
		c-0.938,0.999-1.92,1.495-2.944,1.495s-1.82-0.325-2.388-0.964c-0.571-0.64-0.856-1.495-0.856-2.579v-11.51H297.55z M278.223,142.9
		c-0.77-0.514-1.489-0.914-2.154-1.193c-0.671-0.285-1.361-0.542-2.071-0.77c-0.71-0.229-1.527-0.457-2.456-0.68
		c-0.922-0.228-1.641-0.474-2.152-0.725c-0.739-0.342-1.11-0.884-1.11-1.626c0-0.821,0.357-1.443,1.065-1.854
		c0.712-0.411,1.637-0.616,2.779-0.616c2.156,0,4.165,0.61,6.013,1.832l1.792-3.538c-2.334-1.536-4.807-2.3-7.423-2.3
		c-2.619,0-4.747,0.628-6.38,1.895c-1.635,1.267-2.453,2.95-2.453,5.056c0,2.984,2.362,5.112,7.081,6.396
		c0.114,0.029,0.285,0.081,0.513,0.166c3.013,0.913,4.526,1.935,4.526,3.07c0,0.771-0.318,1.403-0.943,1.9
		c-0.627,0.496-1.477,0.747-2.558,0.747c-2.474,0-5.036-0.998-7.681-2.984l-2.305,3.709c1.367,1.079,2.939,1.917,4.716,2.517
		c1.778,0.594,3.49,0.89,5.141,0.89c2.445,0,4.451-0.645,6.015-1.939c1.566-1.29,2.35-3.019,2.35-5.176
		C280.528,145.514,279.759,143.922,278.223,142.9 M251.433,149.462c-1.135,0.856-2.467,1.284-3.986,1.284
		c-1.523,0-2.713-0.297-3.562-0.873c-0.857-0.588-1.282-1.433-1.282-2.539c0-2.163,1.72-3.241,5.161-3.241h5.375v1.917
		C253.139,147.459,252.574,148.61,251.433,149.462 M257.921,139.83c0-2.904-0.848-5.027-2.539-6.374
		c-1.692-1.352-3.877-2.025-6.551-2.025c-3.497,0-6.624,1.09-9.386,3.281l2.134,2.984c2.273-1.535,4.465-2.3,6.573-2.3
		c3.353,0,5.032,1.506,5.032,4.52v0.85h-6.187c-2.817,0-5.047,0.553-6.699,1.661c-1.646,1.112-2.474,2.778-2.474,5.016
		c0,2.23,0.773,4.011,2.325,5.347c1.55,1.341,3.507,2.002,5.866,2.002c3.159,0,5.675-1.118,7.552-3.366v3.03h4.354V139.83z
		 M232.723,122.814h-4.782v31.642h4.782V122.814z M210.743,141.148h-5.846v-11.938h5.121c2.728,0,4.737,0.428,6.015,1.278
		c1.281,0.856,1.923,2.311,1.923,4.371c0,2.06-0.508,3.623-1.515,4.69C215.428,140.617,213.531,141.148,210.743,141.148
		 M210.104,124.646h-10.239v29.809h5.032v-8.742h5.293c4.376,0,7.629-0.839,9.748-2.517c2.117-1.677,3.179-4.319,3.179-7.931
		c0-3.606-1.036-6.283-3.112-8.012C217.925,125.52,214.626,124.646,210.104,124.646 M174.512,149.462
		c-1.136,0.856-2.466,1.284-3.988,1.284c-1.522,0-2.712-0.297-3.565-0.873c-0.853-0.588-1.28-1.433-1.28-2.539
		c0-2.163,1.721-3.241,5.163-3.241h5.379v1.917C176.221,147.459,175.651,148.61,174.512,149.462 M180.998,139.83
		c0-2.904-0.845-5.027-2.54-6.374c-1.692-1.352-3.874-2.025-6.547-2.025c-3.5,0-6.628,1.09-9.39,3.281l2.136,2.984
		c2.276-1.535,4.465-2.3,6.57-2.3c3.357,0,5.035,1.506,5.035,4.52v0.85h-6.186c-2.816,0-5.052,0.553-6.699,1.661
		c-1.651,1.112-2.477,2.778-2.477,5.016c0,2.23,0.777,4.011,2.325,5.347c1.551,1.341,3.506,2.002,5.87,2.002
		c3.155,0,5.672-1.118,7.551-3.366v3.03h4.352V139.83z M143.135,148.013l3.455-3.492l6.743,9.935h5.803l-9.259-13.689l8.619-8.992
		h-6.145l-9.216,9.632v-18.591h-4.781v31.641h4.781V148.013z M116.473,137.759c1.305-1.433,2.912-2.151,4.821-2.151
		c1.904,0,3.54,0.719,4.904,2.151c1.367,1.438,2.051,3.241,2.051,5.415s-0.697,3.943-2.091,5.307
		c-1.394,1.364-3.03,2.049-4.909,2.049c-1.876,0-3.471-0.69-4.776-2.065c-1.309-1.381-1.964-3.15-1.964-5.313
		C114.509,140.994,115.164,139.197,116.473,137.759 M114.595,135.733v-12.919h-4.781v31.641h4.781v-3.412
		c2.275,2.499,4.842,3.748,7.7,3.748c2.86,0,5.36-1.09,7.511-3.28c2.148-2.192,3.22-5.033,3.22-8.525
		c0-3.497-1.081-6.299-3.244-8.399c-2.161-2.105-4.764-3.155-7.806-3.155C118.932,131.431,116.473,132.863,114.595,135.733
		 M99.942,124.776l-5.037-2.087l-4.521,6.18h4.352L99.942,124.776z M104.506,143.11c0-3.269-1.137-6.03-3.412-8.291
		c-2.276-2.259-5.122-3.389-8.534-3.389c-3.412,0-6.257,1.13-8.533,3.389c-2.277,2.261-3.414,5.022-3.414,8.291
		c0,3.271,1.137,6.038,3.414,8.292c2.276,2.265,5.121,3.389,8.533,3.389c3.412,0,6.258-1.124,8.534-3.389
		C103.369,149.148,104.506,146.381,104.506,143.11 M85.39,143.11c0-2.19,0.678-3.971,2.028-5.352
		c1.352-1.375,3.065-2.065,5.142-2.065c2.077,0,3.789,0.69,5.142,2.065c1.349,1.381,2.028,3.161,2.028,5.352
		c0,2.192-0.679,3.973-2.028,5.354c-1.353,1.375-3.065,2.065-5.142,2.065c-2.077,0-3.79-0.69-5.142-2.065
		C86.068,147.083,85.39,145.303,85.39,143.11 M77.909,136.247l-0.045-4.816c-1.477,0.028-2.877,0.497-4.201,1.404
		c-1.322,0.912-2.369,2.076-3.137,3.497v-4.559h-4.777v22.682h4.777v-9.724c0-2.585,0.6-4.65,1.793-6.18
		c1.195-1.535,2.972-2.305,5.333-2.305H77.909z M43.865,137.759c1.305-1.433,2.915-2.151,4.819-2.151
		c1.906,0,3.541,0.719,4.91,2.151c1.363,1.438,2.046,3.241,2.046,5.415s-0.697,3.943-2.09,5.307
		c-1.395,1.364-3.031,2.049-4.907,2.049c-1.879,0-3.473-0.69-4.778-2.065c-1.31-1.381-1.965-3.15-1.965-5.313
		C41.9,140.994,42.555,139.197,43.865,137.759 M41.986,135.733v-12.919h-4.78v31.641h4.78v-3.412c2.276,2.499,4.843,3.748,7.7,3.748
		c2.861,0,5.364-1.09,7.512-3.28c2.147-2.192,3.22-5.033,3.22-8.525c0-3.497-1.081-6.299-3.241-8.399
		c-2.165-2.105-4.765-3.155-7.809-3.155S43.865,132.863,41.986,135.733 M31.404,139.34c0-4.396-1.508-8.058-4.522-11.002
		c-3.016-2.938-6.744-4.416-11.178-4.416c-4.439,0-8.166,1.478-11.182,4.416c-3.013,2.944-4.521,6.606-4.521,11.002
		c0,4.388,1.508,8.057,4.521,10.995c3.016,2.944,6.743,4.417,11.182,4.417c4.434,0,8.162-1.473,11.178-4.417
		C29.896,147.396,31.404,143.728,31.404,139.34 M26.241,139.34c0,3.001-1.017,5.552-3.05,7.651c-2.032,2.105-4.53,3.155-7.487,3.155
		c-2.96,0-5.458-1.05-7.491-3.155c-2.033-2.1-3.05-4.65-3.05-7.651c0-3.002,1.017-5.547,3.05-7.658
		c2.033-2.1,4.531-3.155,7.491-3.155c2.957,0,5.455,1.056,7.487,3.155C25.224,133.793,26.241,136.338,26.241,139.34"/>
</g>
</svg>
