<?xml version="1.0" encoding="iso-8859-1"?>
<!-- Generator: Adobe Illustrator 16.0.4, SVG Export Plug-In . SVG Version: 6.00 Build 0)  -->
<!DOCTYPE svg PUBLIC "-//W3C//DTD SVG 1.1//EN" "http://www.w3.org/Graphics/SVG/1.1/DTD/svg11.dtd">
<svg version="1.1" id="Ebene_1" xmlns="http://www.w3.org/2000/svg" xmlns:xlink="http://www.w3.org/1999/xlink" x="0px" y="0px"
	 width="324.859px" height="79.37px" viewBox="0 0 324.859 79.37" style="enable-background:new 0 0 324.859 79.37;"
	 xml:space="preserve">
<g>
	<path d="M307.594,68.092v-3.443h9.211v-4.953h-9.211v-3.02h11.145l-0.121-5.648h-18.089v22.65h18.542l0.121-5.586H307.594z
		 M290.23,59.333c0,2.416-0.938,2.932-3.383,2.932h-2.658v-5.92h2.658C289.414,56.344,290.23,56.979,290.23,59.333 M297.479,59.364
		c0-5.346-3.082-8.336-10.631-8.336h-9.725v22.65h7.066v-6.371h2.658C294.396,67.307,297.479,64.106,297.479,59.364 M266.825,59.333
		c0,2.416-0.937,2.932-3.384,2.932h-2.656v-5.92h2.656C266.01,56.344,266.825,56.979,266.825,59.333 M274.073,59.364
		c0-5.346-3.081-8.336-10.632-8.336h-9.723v22.65h7.066v-6.371h2.656C270.992,67.307,274.073,64.106,274.073,59.364 M249.823,51.028
		h-7.037V64.92c0,2.355-1.026,3.412-3.774,3.412s-3.865-1.115-3.865-3.412V51.028h-7.067v13.924c0,6.07,3.745,9.18,10.933,9.18
		c7.217,0,10.812-3.141,10.812-9.18V51.028z M217.6,58.79c0,2.145-0.846,2.689-2.93,2.689h-2.959v-5.166h2.99
		C216.875,56.313,217.6,56.887,217.6,58.79 M224.999,58.518c0-5.043-3.534-7.49-10.178-7.49h-10.177v22.65h7.066v-7.459h2.93
		l3.836,7.459h8.334l-5.799-8.818C223.549,63.954,224.999,61.448,224.999,58.518 M200.87,61.538h-6.19v6.705
		c-0.574,0.121-1.179,0.15-1.783,0.15c-4.016,0-5.133-1.359-5.133-6.1c0-4.529,1.057-6.01,5.828-6.01
		c2.053,0,4.439,0.363,6.342,0.967l0.664-5.617c-2.113-0.664-4.861-1.027-7.398-1.027c-9.09,0-12.896,4.41-12.896,11.809
		c0,7.309,3.564,11.717,12.805,11.717c2.688,0,5.8-0.482,7.763-1.207V61.538z M169.01,73.678v-22.65h-7.037v8.367h-7.52v-8.367
		h-7.067v22.65h7.067v-8.516h7.52v8.516H169.01z M114.952,51.028v22.65h6.311v-9.783l-0.03-2.447l0.061-0.031l0.936,2.266
		l4.409,9.996h4.651l4.469-10.057l0.967-2.264l0.09,0.029l-0.06,2.445v9.846h6.402v-22.65h-7.58l-5.466,11.869l-0.966,2.236h-0.091
		l-0.966-2.236l-5.436-11.869H114.952z M111.177,61.538h-6.191v6.705c-0.574,0.121-1.178,0.15-1.782,0.15
		c-4.016,0-5.134-1.359-5.134-6.1c0-4.529,1.057-6.01,5.829-6.01c2.053,0,4.439,0.363,6.342,0.967l0.664-5.617
		c-2.114-0.664-4.862-1.027-7.399-1.027c-9.09,0-12.895,4.41-12.895,11.809c0,7.309,3.563,11.717,12.805,11.717
		c2.687,0,5.798-0.482,7.761-1.207V61.538z"/>
	<path d="M138.673,39.674l-4.767-8.922l4.517-8.104h-4.041l-3.677,6.81h-1.612v-6.81h-3.564v17.025h3.564v-7.265h1.521l3.814,7.265
		H138.673z M123.339,34.635c0-5.585-7.082-4.586-7.082-7.311c0-0.953,0.544-1.68,2.474-1.68c1.158,0,2.383,0.227,3.655,0.659
		l0.408-3.087c-1.18-0.545-2.747-0.841-4.29-0.841c-3.927,0-5.675,2.225-5.675,5.107c0,5.562,7.082,4.586,7.082,7.378
		c0,1.248-0.749,1.906-2.451,1.906c-1.521,0-2.906-0.431-4.223-1.135l-0.476,3.133c1.316,0.771,2.996,1.203,4.767,1.203
		C121.206,39.969,123.339,37.971,123.339,34.635 M99.301,22.648l-2.156,11.668l-0.296,1.816h-0.068l-0.272-1.816l-1.862-11.668h-3.7
		l3.61,17.025h4.29l1.952-11.441l0.295-1.839h0.068l0.273,1.839l2.02,11.441h4.29l3.587-17.025h-3.564l-1.861,11.645l-0.25,1.816
		h-0.068l-0.318-1.816l-2.156-11.645H99.301z"/>
</g>
<path style="fill:#E3000F;" d="M28.345,28.344h5.67v-5.669h-5.67V28.344z M62.362,28.344h5.668v-5.669h-5.668V28.344z
	 M45.354,34.014h5.669v5.668h-5.669V34.014z M73.701,22.674v5.67H68.03v5.67h-5.668v-5.67h-5.67v-5.67h-5.669v5.67h-5.669v-5.67
	h-5.669v5.67h-5.67v5.67h-5.67v-5.67h-5.669v-5.67h-5.668v5.67h-0.001h-5.669v-5.67H5.669v51.028L79.37,73.7V22.674H73.701z
	 M22.676,22.674h5.669v-5.668h-5.669V22.674z M45.354,22.674h5.669v-5.668h-5.669V22.674z M68.03,22.674h5.67v-5.668h-5.67V22.674z
	 M11.338,17.006h5.669v-5.669h-5.669V17.006z M56.693,17.006h5.669v-5.669h-5.669V17.006z M34.015,11.337h5.669V5.669h-5.669V11.337
	z"/>
</svg>
